<svg width="455" height="94" viewBox="0 0 455 94" fill="none" xmlns="http://www.w3.org/2000/svg">
<path d="M55.2357 88.4196L17.0508 34.6254V88.4196H0V8.32849H17.5312L54.6354 60.2022V8.32849H71.6862V88.4196H55.2357Z" fill="#1B1B1B"/>
<path d="M105.309 88.4196V55.6384L74.4492 8.32849H93.901L113.835 40.5095L133.527 8.32849H152.979L122.359 55.6384V88.4196H105.309Z" fill="#1B1B1B"/>
<path d="M155.382 64.1644C161.026 70.0485 169.792 74.9717 180.839 74.9717C190.204 74.9717 194.767 70.5277 194.767 65.9652C194.767 59.9613 187.803 57.9196 178.557 55.7581C165.469 52.7568 148.658 49.154 148.658 31.2633C148.658 17.9352 160.185 7.12793 179.038 7.12793C191.766 7.12793 202.332 10.9704 210.257 18.2946L200.771 30.7829C194.286 24.779 185.642 22.0173 177.836 22.0173C170.151 22.0173 166.069 25.3792 166.069 30.1826C166.069 35.5863 172.793 37.2673 182.039 39.4287C195.247 42.43 212.059 46.3923 212.059 64.1644C212.059 78.8128 201.612 89.861 179.997 89.861C164.628 89.861 153.581 84.6969 146.016 77.1318L155.382 64.1644Z" fill="#1B1B1B"/>
<path d="M220.576 88.4197V9.76733H247.461C271.871 9.76733 287.79 26.865 287.79 49.1528C287.79 71.5577 271.871 88.4197 247.461 88.4197H220.576ZM230.363 79.6931H247.461C266.564 79.6931 277.648 66.0147 277.648 49.1528C277.648 32.1723 266.918 18.4926 247.461 18.4926H230.363V79.6931Z" fill="#1B1B1B"/>
<path d="M296.809 69.9067C301.997 75.684 310.487 81.1085 321.572 81.1085C335.604 81.1085 340.085 73.5616 340.085 67.5473C340.085 58.1137 330.534 55.5199 320.156 52.6905C307.539 49.3884 293.507 45.8507 293.507 30.4028C293.507 17.4314 305.063 8.58765 320.51 8.58765C332.538 8.58765 341.854 12.5968 348.457 19.5551L342.561 26.7478C336.665 20.2621 328.412 17.3142 319.803 17.3142C310.37 17.3142 303.649 22.3845 303.649 29.8129C303.649 37.7139 312.728 40.072 322.751 42.7843C335.604 46.2048 350.227 50.214 350.227 66.7218C350.227 78.1606 342.444 89.835 321.218 89.835C307.539 89.835 297.516 84.6462 291.03 77.335L296.809 69.9067Z" fill="#1B1B1B"/>
<path d="M395.317 49.4731L380.036 34.1866V20.8502H433.361L453.838 41.4688C451.093 18.1173 431.246 0 407.166 0C381.208 0 360.166 21.0505 360.166 47.0174C360.166 57.6046 363.665 67.3726 369.568 75.2319" fill="#245FC2"/>
<path d="M380.036 34.1514H410.597L395.317 49.4379L380.036 34.1514ZM433.361 20.8151V74.1603H420.03V43.5758L378.998 84.623C386.848 90.5107 396.599 94 407.166 94C433.123 94 454.166 72.9496 454.166 46.9824C454.166 45.0999 454.042 43.2473 453.827 41.4226L433.361 20.8151Z" fill="#0E324F"/>
</svg>
