<svg width="235" height="41" viewBox="0 0 235 41" fill="none" xmlns="http://www.w3.org/2000/svg">
<path d="M47.2656 38.19V4.44916H70.4584V10.7724H54.243V17.905H70.1148V24.2282H54.243V31.8667H70.4584V38.19L47.2656 38.19Z" fill="#1B1B1B"/>
<path d="M90.2204 38.19L84.8155 29.9445L79.3609 38.19H72.4326L80.8351 25.6446L72.924 13.757H79.9014L84.8154 21.2943L89.6799 13.757H96.6573L88.6971 25.6446L97.1978 38.19H90.2204Z" fill="#1B1B1B"/>
<path d="M96.9658 25.9482C96.9658 18.4615 102.224 13.15 109.545 13.15C114.41 13.15 117.358 15.3251 118.93 17.5509L114.852 21.4966C113.722 19.7767 112.002 18.8662 109.84 18.8662C106.056 18.8662 103.403 21.699 103.403 25.9482C103.403 30.1973 106.056 33.0808 109.84 33.0808C112.002 33.0808 113.722 32.0691 114.852 30.4503L118.93 34.3455C117.358 36.6218 114.41 38.797 109.545 38.797C102.224 38.797 96.9658 33.4855 96.9658 25.9482Z" fill="#1B1B1B"/>
<path d="M119.863 25.9482C119.863 18.8662 124.925 13.15 132.147 13.15C139.223 13.15 144.039 18.6132 144.039 26.6058V28.0222H126.398C126.792 31.108 129.2 33.6878 133.228 33.6878C135.243 33.6878 138.044 32.7773 139.568 31.2597L142.319 35.4078C139.96 37.6336 136.226 38.797 132.541 38.797C125.317 38.797 119.863 33.789 119.863 25.9482ZM132.147 18.2591C128.266 18.2591 126.595 21.2437 126.3 23.6718H137.995C137.847 21.3449 136.275 18.2591 132.147 18.2591Z" fill="#1B1B1B"/>
<path d="M147.728 38.19V4.44916H153.968V38.19L147.728 38.19Z" fill="#1B1B1B"/>
<path d="M157.244 35.0031L159.947 30.5009C161.666 32.1703 165.204 33.8396 168.153 33.8396C170.855 33.8396 172.133 32.7267 172.133 31.2091C172.133 29.5398 169.971 29.0845 167.366 28.5787C163.288 27.7693 158.03 26.707 158.03 20.839C158.03 16.7416 161.519 13.15 167.76 13.15C171.789 13.15 174.983 14.5664 177.341 16.4886L174.836 20.8896C173.41 19.3214 170.708 18.0568 167.809 18.0568C165.548 18.0568 164.074 19.1191 164.074 20.4849C164.074 21.9013 165.942 22.306 168.595 22.8625C172.673 23.6718 178.128 24.8353 178.128 30.9562C178.128 35.4078 174.442 38.797 167.858 38.797C163.73 38.797 159.75 37.3806 157.244 35.0031Z" fill="#1B1B1B"/>
<path d="M181.1 7.28197C181.1 5.15733 182.819 3.48804 184.834 3.48804C186.898 3.48804 188.568 5.15733 188.568 7.28197C188.568 9.4066 186.898 11.1265 184.834 11.1265C182.819 11.1265 181.1 9.40655 181.1 7.28197ZM181.738 38.19V13.757H187.979V38.19L181.738 38.19Z" fill="#1B1B1B"/>
<path d="M191.53 25.9482C191.53 19.0179 196.247 13.15 204.06 13.15C211.922 13.15 216.64 19.0179 216.64 25.9482C216.64 32.9291 211.922 38.797 204.06 38.797C196.247 38.797 191.53 32.9291 191.53 25.9482ZM210.154 25.9482C210.154 22.1542 207.942 18.8662 204.06 18.8662C200.178 18.8662 198.016 22.1542 198.016 25.9482C198.016 29.7928 200.178 33.0808 204.06 33.0808C207.942 33.0808 210.154 29.7928 210.154 25.9482Z" fill="#1B1B1B"/>
<path d="M220.397 38.19V13.757H226.638V17.0956C228.309 14.9205 231.257 13.15 234.205 13.15V19.4226C233.763 19.3214 233.173 19.2709 232.485 19.2709C230.421 19.2709 227.67 20.4849 226.638 22.0531V38.19L220.397 38.19Z" fill="#1B1B1B"/>
<path d="M19.8004 0C8.86496 0 0 9.12627 0 20.3841C0 24.974 1.47437 29.2089 3.96107 32.6161L21.2464 14.8213H8.37122V9.03946H30.8365V32.1669H25.2201V18.9072L7.93404 36.7028C11.241 39.2555 15.349 40.7682 19.8004 40.7682C30.7359 40.7682 39.6009 31.6419 39.6009 20.3841C39.6009 9.12623 30.7359 0 19.8004 0Z" fill="#186DB4"/>
<path d="M8.37077 14.8213H21.2459L14.8083 21.4486L8.37077 14.8213ZM30.836 9.03943V32.1669H25.2197V18.9072L7.93359 36.7028C11.2406 39.2554 15.3486 40.7682 19.8 40.7682C30.7355 40.7682 39.6004 31.6419 39.6004 20.3841C39.6004 19.5679 39.5485 18.7647 39.4579 17.9737L30.836 9.03943Z" fill="#0D3B69"/>
</svg>
